<svg width="12" height="22" viewBox="0 0 12 22" fill="none" xmlns="http://www.w3.org/2000/svg">
<path d="M9.22895 18.8142L7.29967 15.9527C6.9053 15.3678 6.61906 14.8326 5.89874 14.4203C6.40157 14.2673 6.85562 14.0453 7.25971 13.7522C8.25162 13.0329 8.8534 11.7185 8.8534 10.5111C8.8534 8.15855 6.83873 6.24457 4.36244 6.24457H0.630859V21.3952H2.15201V14.7966C2.15201 14.7966 2.55313 14.7966 3.11952 14.7966C4.17109 14.7966 4.74232 14.9562 5.30492 15.787L8.22205 20.0944C8.63348 20.6845 9.00874 21.0428 9.4943 21.2765C9.53347 21.2954 9.57289 21.3129 9.61252 21.3291C9.84281 21.4234 10.1433 21.4576 10.3289 21.4624C10.5178 21.4673 10.8566 21.4622 10.8566 21.4622L11.1542 20.2678C9.98776 20.0944 9.72489 19.5256 9.22895 18.8142ZM2.15201 13.3068V7.76888H4.36244C5.87898 7.76888 7.33227 8.93114 7.33227 10.5111C7.33227 12.0971 5.89128 13.3068 4.36244 13.3068H2.15201Z" fill="#46545B"/>
<path d="M8.55613 4.47665L8.70165 4.57366L8.80086 4.42814L10.8832 1.34467L10.9902 1.18592L10.8237 1.09221L9.97599 0.615965L9.81945 0.527771L9.73347 0.685417L7.99172 3.90559L7.91455 4.0478L8.04794 4.1371L8.55613 4.47665Z" fill="#FF7E00"/>
</svg>
